<svg id="Layer_1" data-name="Layer 1" xmlns="http://www.w3.org/2000/svg" viewBox="0 0 135.7 131.22"><defs><style>.cls-1{fill:#b1218e;}</style></defs><path class="cls-1" d="M257.09,184.39H229.85l-9.45-9.87q-16.07,9.89-33,9.87a66.42,66.42,0,0,1-29.54-6.79,68.19,68.19,0,0,1-26.05-23.09,60.27,60.27,0,0,1-10.42-34.79,68.3,68.3,0,0,1,5.2-26.65,64.24,64.24,0,0,1,59.29-39.9A66.24,66.24,0,0,1,243.2,85.86a62.8,62.8,0,0,1,9.34,32.67,64.59,64.59,0,0,1-5.11,25.36,60.18,60.18,0,0,1-12.37,18.71ZM231.15,116q0-21.1-17-33.18-13.5-9.53-28.81-9.54-15.54,0-27.94,10.86-15,13.23-15,35.6,0,11.87,7.29,23.4a44.21,44.21,0,0,0,16.75,15.6,40.9,40.9,0,0,0,19.25,4.91,46.45,46.45,0,0,0,19.36-4.54l-18.81-21.15h28.23l6.11,9.7Q231.14,134.54,231.15,116Z" transform="translate(-121.39 -53.17)"/></svg>