<svg id="Layer_1" data-name="Layer 1" xmlns="http://www.w3.org/2000/svg" viewBox="0 0 16.1 19.76"><defs><style>.cls-1{fill:#fff;}</style></defs><g id="Q7VbO9"><path class="cls-1" d="M41.1,189.94H29.68l-.07,0a2.08,2.08,0,0,1-1.73-1.76,8.35,8.35,0,0,1,0-1v-.24a3.67,3.67,0,0,1-.38,0,.86.86,0,0,1-.68-.91v-5c0-.06,0-.11,0-.16a.84.84,0,0,1,.81-.76h.24v-.26c0-2.48,0-5,0-7.44a2.1,2.1,0,0,1,1.45-2.08l.37-.1h8.26c.05.06.09.12.14.17L42.74,175a.49.49,0,0,1,.16.39v12.26c0,.11,0,.22,0,.33a2.09,2.09,0,0,1-.81,1.54A2.54,2.54,0,0,1,41.1,189.94Zm-12-3v.8a.84.84,0,0,0,.93,1h10.6a.83.83,0,0,0,.92-.94l0-11.83a1.65,1.65,0,0,0,0-.21h-.23c-.77,0-1.54,0-2.31,0a1.83,1.83,0,0,1-.77-.15,1.43,1.43,0,0,1-.83-1.42v-2.4a2,2,0,0,0,0-.23H30.08a.83.83,0,0,0-.93.95v7.43c0,.06,0,.12,0,.21H39.1a.88.88,0,0,1,1,1c0,1.61,0,3.22,0,4.83a1,1,0,0,1-1,1c-3.22,0-6.43,0-9.65,0Zm3-1.57a5.1,5.1,0,0,0,1.83-.06,1.54,1.54,0,0,0,1.22-1.2,2.91,2.91,0,0,0,0-.93,1.39,1.39,0,0,0-1-1.22,4.71,4.71,0,0,0-2.08-.08Zm-2.3,0v-1.26c.18,0,.33,0,.48,0a2.14,2.14,0,0,0,.43-.07,1.09,1.09,0,0,0,.85-1.14,1,1,0,0,0-.83-1,4.85,4.85,0,0,0-1.7,0v3.49Zm8-2.07H36.6v-.82H38v-.63H35.8v3.52h.79v-1.42h1.27Z" transform="translate(-26.8 -170.18)"/><path class="cls-1" d="M32.92,184.72v-2.29a1.21,1.21,0,0,1,1.28.35,1.53,1.53,0,0,1,0,1.52A1.2,1.2,0,0,1,32.92,184.72Z" transform="translate(-26.8 -170.18)"/><path class="cls-1" d="M29.83,183.5c0-.38,0-.7,0-1a.17.17,0,0,1,.1-.1,1.7,1.7,0,0,1,.45,0,.47.47,0,0,1,.41.44.5.5,0,0,1-.31.56A4.19,4.19,0,0,1,29.83,183.5Z" transform="translate(-26.8 -170.18)"/></g></svg>