<svg id="half-q" data-name="Layer 1" xmlns="http://www.w3.org/2000/svg" viewBox="0 0 173.43 148.73"><defs><style>.cls-1{fill:#b2228e;}</style></defs><path class="cls-1" d="M294,211.08q0,30.84-17.5,52.62l-10.16-16.12H219.41l31.27,35.16q-16.6,7.58-32.17,7.55a68,68,0,0,1-32-8.16,73.44,73.44,0,0,1-22.8-18.88V308.8q4.11,2.54,8.48,4.73a110.34,110.34,0,0,0,49.09,11.28q28.18,0,54.86-16.4l15.71,16.4h45.29L300.5,288.6a99.83,99.83,0,0,0,20.57-31.12,107.31,107.31,0,0,0,8.49-42.15,101.28,101.28,0,0,0-7.93-39.25H284.91Q294,191.17,294,211.08Z" transform="translate(-163.7 -176.08)"/></svg>