<svg id="Layer_1" data-name="Layer 1" xmlns="http://www.w3.org/2000/svg" viewBox="0 0 19.02 19.05"><defs><style>.cls-1{fill:#fff;}</style></defs><g id="oD4uLb"><path class="cls-1" d="M29.39,164.26a5,5,0,0,1-1.64,3.13,2.77,2.77,0,0,1-2.23.54c-.17,0-.13-.11-.08-.22a6.12,6.12,0,0,1,2.34-2.62.93.93,0,0,0,.15-.13,6,6,0,0,0-2.78,2.76,2.53,2.53,0,0,1,0-1.16,2.47,2.47,0,0,1,1.52-1.85l.09-.05a4.77,4.77,0,0,1,1.93-.4Z" transform="translate(-16.06 -164.26)"/><path class="cls-1" d="M24.33,168.7c0,.05,0,.07,0,.08a1.52,1.52,0,0,0-.66,1.23.83.83,0,0,1-.27.53c-.11.11-.14.2,0,.28a.3.3,0,0,1,.15.3,3.35,3.35,0,0,0,.05.63.41.41,0,0,0,.22.21,1.07,1.07,0,0,0,.32.08.59.59,0,0,1,.43.93,10.66,10.66,0,0,1-.6.89l-.54.74a1.51,1.51,0,0,0-.29,1.07.81.81,0,0,0,.38.64,1.33,1.33,0,0,1,.26.21.12.12,0,0,1,0,.13s-.08,0-.12,0q-.46-.06-.93-.15c-.06,0-.12-.08-.17-.13a6.53,6.53,0,0,0-.55-.63c-.35-.31-.66-.19-.75.28,0,0,0,.05,0,.07-.08.57-.08.57.46.73s1.27.37,1.91.54c.17,0,.34,0,.51.09a.64.64,0,0,1,.54.71c0,.51,0,1,0,1.54a8,8,0,0,1-.1,1,.62.62,0,0,1-.16.31c-.67.73-1.34,1.45-2,2.17a.66.66,0,0,1-.19.09h0a2,2,0,0,1-1.71-.66,13.11,13.11,0,0,1-2.59-3.06,12.2,12.2,0,0,1-1.58-3.8,9.64,9.64,0,0,1-.19-3.3,9.25,9.25,0,0,1,1-3.41,4,4,0,0,1,2.09-2,2.82,2.82,0,0,1,2.31,0c.74.37,1.45.81,2.17,1.22Z" transform="translate(-16.06 -164.26)"/><path class="cls-1" d="M26.12,168.88c.28-.16.58-.35.89-.51l2.43-1.19a3,3,0,0,1,2.69.1,4.82,4.82,0,0,1,2.57,3.17A8.86,8.86,0,0,1,35,172.5a15.41,15.41,0,0,1,0,2.63,10.6,10.6,0,0,1-1.93,5.4,7.6,7.6,0,0,1-3.52,2.68,2.83,2.83,0,0,1-.83.06s-.09-.07-.11-.12c-.12-.4-.23-.8-.34-1.21a.29.29,0,0,1,.05-.22,1.72,1.72,0,0,0-.52-2.31c-.21-.18-.4-.37-.6-.56a.6.6,0,0,1-.14-.21c-.12-.24-.12-.32.09-.48.37-.28.74-.55,1.13-.8a6,6,0,0,0,1.84-1.62c.26-.38.27-.43,0-.76s-.71-.73-1.07-1.09l-.14-.16.39-.06a5.71,5.71,0,0,1-.88-.61l0-.07.21.1c.12.08.24.18.37.25a.59.59,0,0,0,.68,0,1.64,1.64,0,0,0,.54-.68l-.54.43c-.31.24-.67.18-.95-.26l0,0a1.12,1.12,0,0,0,1-.53c.18-.26.4-.49.62-.76l-.23,0,.08-.29,0,0-.09.16a7.08,7.08,0,0,1-.58.85.93.93,0,0,1-1.63-.39l.22.05a5.74,5.74,0,0,0,.82.1.74.74,0,0,0,.69-.42.31.31,0,0,0-.07-.41l-.11.19a.74.74,0,0,1-.8.42,4,4,0,0,1-.5-.1,1,1,0,0,1-.69-.82c0-.12-.05-.23-.08-.35a.53.53,0,0,0-.43-.39.51.51,0,0,1-.4-.36C26.41,169.4,26.27,169.16,26.12,168.88Z" transform="translate(-16.06 -164.26)"/><path class="cls-1" d="M20.8,165c.44-.13.86-.26,1.28-.36a5.07,5.07,0,0,1,2.05-.11,2.49,2.49,0,0,1,1.33.65,7.36,7.36,0,0,1-.4.62.23.23,0,0,1-.2,0,6.35,6.35,0,0,0-1.6-.51,3,3,0,0,0-.67,0c.34.08.69.14,1,.25s.79.32,1.18.48c.12.05.14.12.12.25a8.42,8.42,0,0,0-.09,1c0,.16-.06.21-.21.22a3.36,3.36,0,0,1-2.26-.73,6.28,6.28,0,0,1-1.45-1.55A.88.88,0,0,1,20.8,165Z" transform="translate(-16.06 -164.26)"/><path class="cls-1" d="M26.84,177.35a5.68,5.68,0,0,1,.08-.66c.1-.53.22-1,.35-1.56a1.84,1.84,0,0,1,.24-.46.19.19,0,0,1,.12-.07,5.21,5.21,0,0,1,.88.06c.3.05.41.29.33.59a2.31,2.31,0,0,1-.69,1.06c-.37.35-.77.66-1.17,1C27,177.31,26.93,177.31,26.84,177.35Z" transform="translate(-16.06 -164.26)"/><path class="cls-1" d="M26.54,170.83a.31.31,0,0,1,.36.27.68.68,0,0,1,0,.35,2.47,2.47,0,0,0-.24,1.11c0,.15-.06.2-.21.15l-.27-.12a.29.29,0,0,1-.1-.45A2.07,2.07,0,0,0,26.54,170.83Z" transform="translate(-16.06 -164.26)"/></g></svg>