<svg id="Layer_1" data-name="Layer 1" xmlns="http://www.w3.org/2000/svg" viewBox="0 0 139.44 26.87"><defs><style>.cls-1{opacity:0.55;}.cls-2{fill:#ec008c;}</style></defs><g class="cls-1"><path class="cls-2" d="M290.15,656h2.26l4.49,15.85L303.21,656h.45l6.23,15.85L314.46,656h2.24l-6.32,22H310l-6.52-16.64L296.8,678h-.41Z" transform="translate(-290.15 -655.49)"/><path class="cls-2" d="M332.7,672.63l1.76.93a9.77,9.77,0,0,1-2,2.75,8,8,0,0,1-2.56,1.59,8.8,8.8,0,0,1-3.22.55,7.76,7.76,0,0,1-6.22-2.61,8.8,8.8,0,0,1-2.25-5.9,8.66,8.66,0,0,1,1.9-5.51,7.76,7.76,0,0,1,6.45-3.08,8,8,0,0,1,6.64,3.15,8.8,8.8,0,0,1,1.8,5.56H320.36a6.63,6.63,0,0,0,1.82,4.65,5.74,5.74,0,0,0,4.32,1.81,6.94,6.94,0,0,0,2.42-.43,6.4,6.4,0,0,0,2-1.15A9.75,9.75,0,0,0,332.7,672.63Zm0-4.38a7,7,0,0,0-1.22-2.67,5.82,5.82,0,0,0-2.12-1.62,6.47,6.47,0,0,0-2.77-.61,6,6,0,0,0-4.12,1.54,7.05,7.05,0,0,0-1.9,3.36Z" transform="translate(-290.15 -655.49)"/><path class="cls-2" d="M338.59,655.49h2.09V678h-2.09Z" transform="translate(-290.15 -655.49)"/><path class="cls-2" d="M360.82,665.14l-1.66,1a7,7,0,0,0-5.87-2.86,6.82,6.82,0,0,0-4.94,1.91,6.24,6.24,0,0,0-2,4.65,6.59,6.59,0,0,0,.9,3.34,6.3,6.3,0,0,0,2.48,2.43,7.49,7.49,0,0,0,9.39-2l1.66,1.1a7.83,7.83,0,0,1-3.14,2.72,9.92,9.92,0,0,1-4.47,1,8.86,8.86,0,0,1-6.4-2.45,8,8,0,0,1-2.54-6,8.49,8.49,0,0,1,1.19-4.39,8.39,8.39,0,0,1,3.26-3.16,9.64,9.64,0,0,1,4.65-1.13,9.89,9.89,0,0,1,3.12.49,8.71,8.71,0,0,1,2.55,1.29A7.09,7.09,0,0,1,360.82,665.14Z" transform="translate(-290.15 -655.49)"/><path class="cls-2" d="M384.87,661.77H387v2.81a8.13,8.13,0,0,1,2.25-2.28,6.4,6.4,0,0,1,3.33-.95,5.56,5.56,0,0,1,2.25.46,4.84,4.84,0,0,1,1.73,1.23,6.68,6.68,0,0,1,1.17,2.21,7.75,7.75,0,0,1,2.61-2.91,6.21,6.21,0,0,1,3.37-1,5.26,5.26,0,0,1,3,.85,5,5,0,0,1,1.91,2.38,12.58,12.58,0,0,1,.63,4.57V678h-2.14v-8.88a11.66,11.66,0,0,0-.37-3.6,3.25,3.25,0,0,0-1.27-1.57,3.83,3.83,0,0,0-2.16-.6,4.68,4.68,0,0,0-2.78.9,5.16,5.16,0,0,0-1.84,2.39,15.37,15.37,0,0,0-.58,5V678H396V669.7a14.08,14.08,0,0,0-.37-4,3.33,3.33,0,0,0-1.27-1.68,3.68,3.68,0,0,0-2.17-.64,4.72,4.72,0,0,0-2.72.87,5.18,5.18,0,0,0-1.86,2.36,12.56,12.56,0,0,0-.61,4.53V678h-2.09Z" transform="translate(-290.15 -655.49)"/><path class="cls-2" d="M427.29,672.63l1.77.93a9.6,9.6,0,0,1-2,2.75,7.85,7.85,0,0,1-2.56,1.59,8.79,8.79,0,0,1-3.21.55,7.78,7.78,0,0,1-6.23-2.61,8.79,8.79,0,0,1-2.24-5.9,8.66,8.66,0,0,1,1.9-5.51,7.74,7.74,0,0,1,6.45-3.08,8,8,0,0,1,6.64,3.15,8.8,8.8,0,0,1,1.79,5.56H415a6.62,6.62,0,0,0,1.81,4.65,5.78,5.78,0,0,0,4.33,1.81,6.88,6.88,0,0,0,2.41-.43,6.28,6.28,0,0,0,2-1.15A9.49,9.49,0,0,0,427.29,672.63Zm0-4.38a6.89,6.89,0,0,0-1.22-2.67A5.73,5.73,0,0,0,424,664a6.42,6.42,0,0,0-2.76-.61,6,6,0,0,0-4.12,1.54,7,7,0,0,0-1.9,3.36Z" transform="translate(-290.15 -655.49)"/><path class="cls-2" d="M381,669.85a8.5,8.5,0,0,0-5.39-7.91c-.28.68-.61,1.54-.91,2.36a6.93,6.93,0,0,1-.87,13.48l-.12.48A8.51,8.51,0,0,0,381,669.85Z" transform="translate(-290.15 -655.49)"/><path class="cls-2" d="M364,669.85a8.51,8.51,0,0,0,8.37,8.5c-.07-.16-.14-.33-.22-.5a6.94,6.94,0,0,1-6.34-6.91" transform="translate(-290.15 -655.49)"/><path class="cls-2" d="M365.76,670.94a6.93,6.93,0,0,1,4.77-6.58c-.46-.85-1-1.73-1.4-2.34a8.51,8.51,0,0,0-5.18,7.83" transform="translate(-290.15 -655.49)"/><path class="cls-2" d="M371,664.22a13.8,13.8,0,0,0-1.74-2.26,1,1,0,0,0-.16.06c.41.61.94,1.49,1.4,2.34Z" transform="translate(-290.15 -655.49)"/><path class="cls-2" d="M373.44,677.84l-.09.47.33,0,.12-.48Z" transform="translate(-290.15 -655.49)"/><path class="cls-2" d="M374.67,664.3c.3-.82.63-1.68.91-2.36l-.1,0c-.33.63-.75,1.46-1.14,2.31Z" transform="translate(-290.15 -655.49)"/><path class="cls-2" d="M365.76,670.94a6.94,6.94,0,0,0,6.34,6.91c-.29-.66-.59-1.37-.81-1.91v0c-1.59-2.88-1.94-5.57-1.64-6.27s2-2.19,1.78-3.27a9.75,9.75,0,0,0-.91-2.08,6.93,6.93,0,0,0-4.77,6.58" transform="translate(-290.15 -655.49)"/><path class="cls-2" d="M374.72,668.73a2.55,2.55,0,0,1,.58,2.27c-.23,1.41-.87,4.22-1.5,6.78a6.93,6.93,0,0,0,.87-13.48,17.89,17.89,0,0,0-.79,2.47C373.74,667.68,374.37,668.15,374.72,668.73Z" transform="translate(-290.15 -655.49)"/><path class="cls-2" d="M369.66,669.71c-.3.7,0,3.39,1.64,6.27v0l-.36-.85.32.74a37.45,37.45,0,0,1-1.12-5.16c0-1.21,1.52-2.41,1.94-3.57.2-.57-.32-1.75-1-2.88l-.5.14a9.75,9.75,0,0,1,.91,2.08C371.65,667.52,370,669,369.66,669.71Z" transform="translate(-290.15 -655.49)"/><path class="cls-2" d="M373.5,666.14c-.77,2,1.24,2.52,1.22,4.13,0,1.13-.63,4.16-1.28,7.57l.36-.06c.63-2.56,1.27-5.37,1.5-6.78a2.55,2.55,0,0,0-.58-2.27c-.35-.58-1-1.05-.84-2a17.89,17.89,0,0,1,.79-2.47l-.33-.09C374,664.88,373.72,665.56,373.5,666.14Z" transform="translate(-290.15 -655.49)"/><path class="cls-2" d="M371.29,675.94l0-.11-.32-.74Z" transform="translate(-290.15 -655.49)"/><path class="cls-2" d="M368.79,661.53c1,.66,3.7,4.4,3.28,5.57s-2,2.36-1.94,3.57A39.5,39.5,0,0,0,371.3,676c-1.59-2.88-1.94-5.57-1.64-6.27s2-2.19,1.78-3.27A21.17,21.17,0,0,0,368.79,661.53Z" transform="translate(-290.15 -655.49)"/><path class="cls-2" d="M376,660.86a50.28,50.28,0,0,0-2.15,5.91c-.14.91.49,1.38.84,2a2.55,2.55,0,0,1,.58,2.27c-.39,2.43-2,9-2.71,11.36.87-4.93,2.11-10.47,2.13-12.09s-2-2.1-1.22-4.13A56.37,56.37,0,0,1,376,660.86Z" transform="translate(-290.15 -655.49)"/><path class="cls-2" d="M372.08,662.17c.68.14,1.41-.59,1.64-1.63s-.14-2-.82-2.16-1.35.47-1.58,1.52a1.73,1.73,0,0,0,0,1h0a3.13,3.13,0,0,1,.06-.73c.2-.93.81-1.58,1.36-1.46s.84,1,.64,1.89-.81,1.59-1.36,1.47a1.76,1.76,0,0,1-.49-.33A1.11,1.11,0,0,0,372.08,662.17Z" transform="translate(-290.15 -655.49)"/></g></svg>